<?xml version="1.0" standalone="no"?>
<!DOCTYPE svg PUBLIC "-//W3C//DTD SVG 20010904//EN"
 "http://www.w3.org/TR/2001/REC-SVG-20010904/DTD/svg10.dtd">
<svg version="1.0" xmlns="http://www.w3.org/2000/svg"
 width="500.000000pt" height="500.000000pt" viewBox="0 0 500.000000 500.000000"
 preserveAspectRatio="xMidYMid meet">
<metadata>
Created by potrace 1.11, written by Peter Selinger 2001-2013
</metadata>
<g transform="translate(0.000000,500.000000) scale(0.100000,-0.100000)"
fill="#000000" stroke="none">
<path d="M3595 4110 c-21 -8 -128 -104 -229 -205 -38 -38 -51 -47 -35 -25 93
127 100 140 97 167 -5 47 -39 42 -95 -14 -44 -45 -295 -308 -473 -496 -41 -44
-93 -99 -115 -122 -22 -23 -105 -111 -185 -195 -80 -85 -190 -201 -245 -259
-126 -131 -133 -139 -228 -239 -44 -46 -77 -79 -75 -74 2 8 80 96 168 192 14
15 57 62 95 105 39 43 81 90 94 104 12 14 51 57 85 95 33 38 68 77 76 85 9 9
52 56 95 106 44 49 91 102 105 116 14 15 54 60 90 100 36 40 90 101 120 134
30 34 87 96 125 140 39 43 96 108 128 144 65 72 72 104 23 109 -26 3 -47 -15
-190 -160 -88 -90 -216 -222 -283 -293 -66 -72 -138 -149 -160 -171 -21 -23
-87 -95 -148 -160 -60 -65 -140 -150 -176 -189 -37 -38 -84 -89 -105 -111 -93
-99 -254 -272 -284 -304 -58 -63 -294 -312 -333 -351 -71 -73 -49 -39 39 59
211 235 334 372 344 382 3 3 48 52 100 110 52 58 113 125 135 150 46 49 236
259 300 329 22 25 65 70 95 102 30 32 65 70 78 86 13 15 40 46 60 68 20 22 82
90 137 150 55 61 117 128 138 150 54 58 62 105 17 105 -17 0 -87 -67 -364
-353 -36 -38 -66 -76 -66 -84 0 -19 -39 -62 -151 -168 -46 -44 -68 -62 -48
-40 65 73 110 134 124 169 14 33 14 36 -7 50 -16 12 -26 13 -42 4 -12 -6 -95
-84 -185 -174 -90 -90 -166 -164 -170 -164 -3 0 -1 4 5 8 10 6 150 169 234
271 55 67 108 149 106 163 -3 24 -17 38 -37 38 -22 0 -237 -215 -544 -545
-163 -175 -235 -240 -115 -105 113 128 114 129 356 408 117 134 211 250 210
258 -4 24 -24 37 -49 30 -33 -8 -356 -331 -612 -611 -23 -25 -24 -26 -8 -3 11
14 51 61 89 104 38 42 89 99 114 127 25 27 53 59 63 71 10 11 45 50 77 86 104
116 212 244 231 274 13 22 15 34 8 48 -19 36 -48 19 -158 -94 -187 -194 -297
-306 -261 -264 19 22 37 43 40 46 17 16 190 230 207 256 31 44 38 78 18 94
-11 9 -22 10 -36 4 -12 -6 -100 -88 -197 -184 -97 -96 -167 -164 -157 -150 11
14 22 27 25 30 3 3 34 39 69 80 36 41 70 80 75 85 6 6 29 33 51 60 22 28 47
58 56 68 9 10 25 33 35 52 17 32 17 36 2 51 -10 10 -23 14 -36 10 -19 -6 -198
-183 -538 -531 -116 -119 -124 -126 -53 -44 46 52 109 124 140 160 31 35 93
107 139 159 45 52 94 109 109 125 58 66 73 93 61 115 -27 50 -64 22 -335 -261
-88 -91 -94 -83 -9 11 68 75 174 206 190 236 37 68 -18 88 -74 27 -105 -116
-449 -484 -643 -687 -212 -223 -219 -229 -74 -60 28 32 88 101 135 154 46 52
91 103 100 114 8 10 26 30 40 46 14 15 48 54 77 86 55 63 61 70 138 159 28 32
55 63 60 69 52 55 115 140 115 155 0 18 -18 41 -33 41 -10 0 -62 -53 -227
-230 -137 -147 -152 -163 -255 -272 -44 -46 -104 -109 -132 -140 -29 -31 -53
-54 -53 -50 0 4 10 18 23 32 18 21 81 98 130 160 7 9 46 58 87 110 97 122 184
239 199 268 17 32 5 62 -25 62 -24 0 -147 -116 -345 -326 -81 -85 -101 -98
-46 -29 26 33 87 109 134 169 50 63 86 118 85 129 -1 20 -18 37 -36 37 -11 0
-137 -127 -296 -300 -63 -68 -175 -185 -247 -260 -73 -74 -133 -142 -133 -151
0 -16 19 -29 41 -29 5 0 41 30 81 68 l72 67 -55 -68 c-149 -189 -168 -225
-126 -251 19 -12 44 12 406 389 74 77 127 131 119 120 -25 -33 -183 -229 -350
-432 -181 -222 -186 -229 -165 -250 21 -21 54 -11 95 28 45 42 49 33 6 -16
-92 -105 -116 -169 -69 -181 28 -7 53 9 147 98 32 30 58 53 58 51 0 -3 -46
-58 -102 -124 -135 -158 -152 -190 -108 -204 37 -12 68 17 354 316 83 87 100
102 56 49 -34 -41 -79 -93 -99 -115 -46 -51 -168 -198 -205 -247 -32 -43 -32
-81 1 -86 24 -4 14 -13 344 329 119 123 265 274 324 334 l107 110 -83 -95
c-45 -52 -115 -131 -155 -175 -40 -44 -82 -90 -92 -103 -23 -26 -123 -140
-196 -220 -165 -185 -236 -275 -236 -298 0 -20 17 -34 41 -34 13 0 177 167
651 664 270 285 325 334 122 110 -45 -49 -99 -109 -120 -133 -22 -24 -50 -56
-64 -71 -14 -15 -56 -62 -95 -105 -85 -94 -98 -108 -205 -226 -47 -51 -94
-103 -106 -116 -171 -187 -181 -200 -171 -227 10 -26 54 -18 94 16 21 18 98
92 172 165 73 73 136 133 140 133 3 0 1 -4 -4 -8 -6 -4 -37 -38 -70 -77 -33
-38 -68 -79 -78 -90 -43 -46 -137 -177 -137 -189 0 -22 28 -39 52 -33 26 7
222 201 443 438 28 30 83 90 124 134 41 44 68 71 60 59 -11 -17 -89 -109 -134
-158 -6 -6 -55 -63 -110 -126 -54 -63 -104 -120 -110 -126 -5 -6 -32 -37 -60
-69 -27 -32 -64 -74 -82 -94 -48 -54 -59 -77 -43 -96 29 -35 53 -17 275 208
121 122 284 290 362 372 191 202 282 297 258 266 -11 -14 -25 -30 -31 -36 -6
-5 -49 -53 -95 -105 -46 -52 -88 -100 -94 -106 -5 -6 -37 -41 -70 -78 -33 -38
-69 -78 -80 -90 -11 -12 -56 -62 -100 -111 -44 -49 -91 -101 -105 -116 -14
-15 -36 -40 -49 -56 -79 -92 -137 -159 -142 -163 -4 -3 -18 -22 -33 -44 -29
-43 -22 -76 16 -76 23 0 162 136 428 419 74 79 153 162 175 185 22 23 67 70
100 106 32 36 68 71 79 79 16 11 -59 -76 -94 -109 -8 -8 -109 -118 -200 -220
-47 -51 -93 -102 -102 -111 -9 -10 -54 -59 -100 -111 -46 -51 -90 -100 -98
-108 -85 -89 -154 -185 -144 -202 17 -28 42 -26 85 5 l44 32 -22 -29 c-31 -39
-30 -74 1 -82 45 -11 66 7 355 296 108 107 168 166 136 130 -124 -137 -144
-159 -265 -295 -69 -77 -127 -142 -130 -145 -19 -17 -50 -65 -50 -77 0 -24 42
-32 74 -14 16 9 146 133 290 276 243 243 464 470 782 806 28 30 59 61 70 68
10 8 -4 -10 -32 -40 -29 -29 -74 -78 -100 -108 -27 -30 -62 -68 -79 -85 -16
-18 -82 -88 -145 -156 -63 -68 -124 -134 -135 -146 -11 -11 -74 -78 -140 -149
-66 -71 -135 -144 -154 -164 -130 -139 -245 -263 -275 -296 -41 -45 -44 -78
-8 -83 18 -3 36 10 74 50 28 29 132 137 230 240 98 102 187 195 197 206 9 12
92 99 183 194 91 95 183 191 203 213 21 22 111 117 200 210 89 94 182 190 205
215 55 59 457 475 582 601 53 55 99 99 103 99 6 0 -71 -87 -226 -255 -26 -27
-57 -62 -70 -76 -44 -49 -186 -203 -225 -245 -22 -23 -84 -90 -139 -149 -55
-60 -116 -125 -135 -145 -19 -20 -83 -88 -141 -151 -171 -182 -175 -187 -314
-334 -73 -77 -146 -153 -161 -170 -15 -16 -84 -91 -155 -165 -70 -74 -137
-146 -149 -160 -12 -14 -47 -52 -78 -85 -31 -33 -65 -70 -75 -82 -24 -28 -14
-63 17 -63 32 0 87 56 787 791 86 90 171 180 189 199 18 19 100 107 184 194
83 87 168 177 190 200 97 103 176 183 193 196 16 13 -9 -15 -123 -136 -22 -22
-79 -85 -129 -139 -49 -54 -108 -117 -130 -140 -22 -23 -67 -71 -99 -106 -33
-35 -111 -120 -175 -188 -64 -68 -123 -132 -131 -141 -8 -9 -58 -64 -110 -120
-136 -148 -138 -149 -220 -241 -41 -46 -82 -90 -90 -99 -73 -78 -184 -208
-232 -272 -42 -56 -47 -82 -19 -98 36 -19 82 11 220 141 78 75 100 87 48 28
-56 -64 -112 -131 -121 -148 -5 -9 -16 -22 -23 -29 -19 -20 -16 -60 6 -71 15
-8 25 -6 47 12 37 29 297 294 624 637 246 257 237 248 323 339 42 46 77 79 77
74 0 -4 -33 -42 -73 -84 -72 -76 -271 -289 -316 -338 -13 -14 -49 -53 -80 -86
-72 -76 -287 -309 -326 -354 -17 -19 -39 -43 -51 -55 -28 -29 -117 -136 -137
-165 -12 -18 -13 -29 -6 -43 22 -40 53 -22 188 112 128 127 182 173 102 88
-50 -55 -129 -156 -146 -188 -27 -53 16 -88 71 -57 24 13 129 104 181 155 58
57 45 34 -28 -50 -131 -152 -157 -208 -100 -216 19 -3 44 17 129 105 58 59
223 230 367 378 145 149 298 307 341 351 476 493 955 981 898 914 -37 -44 -63
-72 -198 -217 -38 -40 -77 -83 -88 -95 -11 -13 -61 -68 -111 -122 -51 -55
-103 -111 -117 -126 -14 -15 -70 -76 -125 -135 -55 -59 -111 -119 -124 -134
-13 -14 -72 -77 -130 -140 -58 -62 -122 -130 -141 -151 -19 -20 -82 -88 -140
-150 -58 -62 -121 -129 -140 -150 -19 -21 -83 -89 -142 -151 -195 -209 -196
-210 -172 -233 8 -9 23 -16 32 -16 15 0 323 305 727 721 110 113 169 171 130
130 -38 -42 -76 -83 -85 -92 -14 -15 -199 -213 -266 -285 -16 -17 -72 -77
-124 -134 -52 -56 -113 -121 -135 -145 -61 -64 -171 -187 -194 -217 -26 -32
-27 -54 -3 -66 24 -14 50 -1 107 53 28 26 68 63 89 83 l40 37 -45 -53 c-94
-115 -113 -147 -98 -174 5 -10 20 -18 32 -18 25 0 35 8 202 169 103 100 112
105 30 16 -92 -99 -195 -231 -195 -249 0 -7 8 -21 19 -30 17 -16 20 -15 52 11
19 15 36 31 39 34 3 4 106 111 230 240 275 284 596 619 685 713 42 45 414 432
570 594 198 205 463 472 424 428 -19 -22 -38 -45 -44 -51 -45 -52 -149 -170
-190 -214 -27 -31 -54 -60 -60 -67 -28 -31 -183 -200 -200 -219 -11 -11 -42
-46 -70 -76 -43 -46 -197 -212 -314 -338 -248 -267 -277 -297 -426 -456 -68
-71 -137 -146 -155 -165 -18 -19 -94 -100 -169 -179 -75 -80 -149 -159 -166
-177 -16 -17 -58 -61 -92 -97 -45 -46 -63 -72 -63 -91 0 -14 5 -27 10 -27 6
-1 16 -2 23 -3 32 -5 107 56 305 249 73 71 136 132 140 135 6 4 -45 -57 -58
-70 -44 -43 -150 -185 -150 -201 0 -11 29 -39 41 -39 10 0 62 52 244 242 61
63 198 206 306 319 108 112 238 249 290 303 144 152 317 327 268 271 -86 -97
-114 -128 -134 -149 -11 -12 -54 -59 -95 -106 -41 -46 -80 -90 -86 -96 -9 -10
-104 -116 -169 -188 -239 -267 -365 -424 -377 -473 -7 -28 14 -47 42 -38 26 8
423 409 633 639 15 16 96 101 181 190 84 88 171 179 191 201 83 87 -4 -22
-120 -151 -5 -6 -31 -35 -57 -65 -25 -30 -54 -64 -65 -75 -28 -33 -103 -120
-183 -214 -39 -47 -86 -101 -102 -120 -93 -106 -138 -169 -138 -193 0 -34 26
-41 64 -18 41 26 298 290 542 556 15 17 75 82 134 145 59 63 124 133 144 155
21 22 -32 -53 -117 -166 -85 -113 -162 -220 -171 -237 -18 -36 -13 -58 17 -68
22 -7 41 11 294 281 77 82 90 101 82 117 -5 10 -19 18 -30 18 -19 0 -18 2 8
38 15 20 33 42 38 48 6 6 21 26 35 44 14 18 87 112 163 208 75 96 137 180 137
186 0 18 -22 36 -45 36 -13 0 -94 -74 -235 -217 -118 -120 -204 -205 -190
-188 14 16 28 32 31 35 3 3 36 41 74 85 38 44 72 82 75 85 14 12 368 428 383
450 22 32 21 47 -4 60 -16 9 -25 8 -42 -3 -32 -21 -188 -178 -452 -452 -278
-288 -279 -289 -382 -398 -45 -48 -85 -87 -88 -87 -4 0 14 21 38 48 25 26 62
67 83 91 22 24 50 56 64 70 14 14 68 73 120 131 52 58 97 107 100 110 8 8 184
203 221 244 19 21 45 51 59 66 166 181 270 310 270 332 0 24 -30 38 -58 27
-13 -5 -159 -145 -325 -311 -166 -167 -277 -276 -246 -243 31 33 78 84 105
114 27 30 60 66 74 81 14 14 57 62 95 106 39 43 79 88 90 100 139 149 274 312
282 343 7 27 -21 55 -43 43 -27 -16 -181 -174 -343 -352 -17 -19 -31 -31 -31
-26 0 8 54 73 146 176 117 131 214 267 214 300 0 50 -46 49 -102 -2 -8 -7 -39
-35 -69 -63 -50 -47 -41 -31 25 40 16 17 54 65 87 108 47 63 57 82 50 100 -5
12 -17 23 -28 25 -21 3 -98 -75 -666 -672 -78 -82 -160 -168 -182 -191 -22
-22 -128 -133 -235 -245 -107 -112 -224 -233 -260 -270 -36 -37 -105 -108
-153 -158 -49 -50 -87 -87 -85 -82 2 5 73 82 158 171 85 90 174 184 198 209
85 88 338 354 372 390 40 42 273 289 316 336 16 17 76 82 134 144 58 62 112
120 120 130 8 9 41 47 74 83 75 85 136 167 136 183 0 27 -13 44 -34 44 -16 0
-73 -51 -189 -169 -159 -161 -196 -193 -97 -84 150 166 240 279 240 304 0 19
-19 39 -40 39 -8 1 -129 -115 -269 -257 -141 -144 -209 -209 -155 -148 235
264 366 423 383 467 11 29 -3 58 -28 58 -20 0 -714 -700 -1192 -1201 -36 -38
-69 -69 -72 -69 -3 0 4 10 16 23 49 51 277 295 313 336 21 23 57 62 79 85 77
81 181 192 275 295 52 58 106 116 120 131 14 15 59 64 100 110 41 46 80 88 85
94 6 6 39 45 75 86 36 41 67 77 71 80 3 3 18 22 33 42 33 44 32 81 -2 86 -18
3 -37 -10 -75 -50 -74 -78 -309 -328 -342 -363 -15 -16 -77 -83 -138 -149 -62
-65 -128 -135 -147 -156 -74 -79 -249 -267 -280 -300 -18 -19 -94 -100 -169
-179 -75 -79 -153 -162 -175 -185 -226 -240 -386 -405 -630 -651 -246 -246
-295 -293 -231 -219 29 33 222 241 301 323 50 53 108 114 129 136 20 22 110
117 200 210 89 94 177 186 195 205 18 19 121 127 229 239 108 112 210 218 226
235 17 18 99 105 184 195 85 89 162 170 170 180 9 10 57 63 108 117 50 55 101
111 113 124 12 14 34 39 49 55 98 109 161 197 161 224 0 5 -7 16 -15 25 -29
29 -46 15 -294 -238 -134 -138 -188 -183 -83 -70 169 182 310 349 323 383 13
33 -9 56 -44 47 -14 -3 -120 -100 -244 -224 -219 -218 -642 -654 -655 -675 -4
-6 -9 -9 -12 -7 -2 3 33 45 80 94 122 130 399 433 521 571 143 163 167 201
142 231 -26 31 -31 26 -265 -222 -73 -76 -146 -155 -164 -174 -132 -143 -196
-211 -428 -457 -74 -78 -142 -152 -153 -164 -10 -12 -77 -83 -148 -158 -71
-75 -143 -152 -161 -171 -106 -114 -405 -424 -594 -614 -202 -203 -238 -235
-109 -96 28 30 61 66 73 80 12 14 63 70 113 124 134 145 137 148 196 212 30
33 107 115 171 184 148 158 231 248 273 292 17 19 78 84 133 144 56 60 116
125 134 144 18 19 60 65 94 101 62 66 259 281 412 448 27 30 56 62 64 70 37
39 199 229 223 262 31 42 35 74 9 88 -22 12 -56 -7 -122 -69 -105 -98 -126
-116 -99 -85 54 62 89 119 89 145 0 30 -22 42 -55 30z m-295 -373 c0 -2 -10
-12 -22 -23 l-23 -19 19 23 c18 21 26 27 26 19z m-1969 -110 l-24 -22 19 27
c10 14 21 24 23 22 3 -3 -6 -15 -18 -27z m297 -71 c-7 -8 -15 -12 -17 -11 -5
6 10 25 20 25 5 0 4 -6 -3 -14z m2087 -86 c-3 -5 -12 -10 -18 -10 -7 0 -6 4 3
10 19 12 23 12 15 0z m-25 -24 c0 -2 -8 -10 -17 -17 -16 -13 -17 -12 -4 4 13
16 21 21 21 13z m-600 -109 c0 -2 -10 -12 -22 -23 l-23 -19 19 23 c18 21 26
27 26 19z m-50 -50 c0 -2 -15 -16 -32 -33 l-33 -29 29 33 c28 30 36 37 36 29z
m-970 -30 c0 -2 -10 -12 -22 -23 l-23 -19 19 23 c18 21 26 27 26 19z m-480
-111 c0 -2 -8 -10 -17 -17 -16 -13 -17 -12 -4 4 13 16 21 21 21 13z m1570 -60
c0 -2 -7 -9 -15 -16 -13 -11 -14 -10 -9 4 5 14 24 23 24 12z m610 -60 c0 -3
-4 -8 -10 -11 -5 -3 -10 -1 -10 4 0 6 5 11 10 11 6 0 10 -2 10 -4z m-1300 -9
c0 -2 -15 -16 -32 -33 l-33 -29 29 33 c28 30 36 37 36 29z m620 0 c0 -2 -17
-19 -37 -38 l-38 -34 34 38 c33 34 41 42 41 34z m-685 -77 c-3 -5 -12 -10 -18
-10 -7 0 -6 4 3 10 19 12 23 12 15 0z m-564 -33 c-10 -9 -11 -8 -5 6 3 10 9
15 12 12 3 -3 0 -11 -7 -18z m-52 -55 c-19 -21 -36 -37 -38 -35 -5 3 59 73 67
73 2 0 -11 -17 -29 -38z m-379 -6 c0 -2 -8 -10 -17 -17 -16 -13 -17 -12 -4 4
13 16 21 21 21 13z m1600 -19 c0 -2 -12 -14 -27 -28 l-28 -24 24 28 c23 25 31
32 31 24z m1280 -90 l-54 -52 49 55 c28 31 52 54 55 53 2 -2 -20 -27 -50 -56z
m-1340 29 c0 -2 -8 -10 -17 -17 -16 -13 -17 -12 -4 4 13 16 21 21 21 13z
m-150 -164 c-112 -117 -104 -109 -95 -92 5 8 40 48 79 88 39 40 73 78 75 83 1
6 6 8 9 5 3 -3 -28 -41 -68 -84z m340 -115 c0 -2 -19 -21 -42 -42 l-43 -40 40
43 c36 39 45 47 45 39z m-1650 -200 c0 -2 -10 -12 -22 -23 l-23 -19 19 23 c18
21 26 27 26 19z m1590 -181 c0 -2 -8 -10 -17 -17 -16 -13 -17 -12 -4 4 13 16
21 21 21 13z m990 -100 c0 -2 -8 -10 -17 -17 -16 -13 -17 -12 -4 4 13 16 21
21 21 13z m80 -19 c0 -2 -10 -12 -22 -23 l-23 -19 19 23 c18 21 26 27 26 19z
m-1090 -161 c0 -2 -8 -10 -17 -17 -16 -13 -17 -12 -4 4 13 16 21 21 21 13z
m690 -51 c-24 -25 -46 -45 -49 -45 -3 0 15 20 39 45 24 25 46 45 49 45 3 0
-15 -20 -39 -45z m-750 -8 c0 -2 -10 -12 -22 -23 l-23 -19 19 23 c18 21 26 27
26 19z m-60 -61 c0 -2 -8 -10 -17 -17 -16 -13 -17 -12 -4 4 13 16 21 21 21 13z
m-40 -40 c0 -2 -8 -10 -17 -17 -16 -13 -17 -12 -4 4 13 16 21 21 21 13z m-830
-9 c0 -2 -10 -12 -22 -23 l-23 -19 19 23 c18 21 26 27 26 19z"/>
</g>
</svg>
